# xmcd CD database file
#
# Track frame offsets:
#	150
#	18811
#	30987
#	50484
#	64673
#	80220
#	98777
#	115202
#	133692
#	150284
#	163397
#	178763
#	197121
#	210627
#	229560
#	245017
#	260798
#	277944
#	297124
#	310878
#
# Disc length: 4419 seconds
#
# Revision: 0
# Processed by: cddbd v1.5.1PL2 Copyright (c) Steve Scherf et al.
# Submitted via: CDex 1.51
#
DISCID=19114114
DTITLE=various artitsts - Line Dance Training
DYEAR=1900
DGENRE=Country
TTITLE0=Any Man of mine
TTITLE1=The Wanderer
TTITLE2=Cotton Eye Joe
TTITLE3=Long Trails of Tears
TTITLE4=Achy Breaky Heart
TTITLE5=Electric Slide
TTITLE6=Honey I'm Home
TTITLE7=Spirit of the Hawk
TTITLE8=Two Pina Colada
TTITLE9=Up
TTITLE10=1.2.3.4 Tush push
TTITLE11=Hold your Horses
TTITLE12=Get in Line
TTITLE13=Chattahoochee
TTITLE14=Shortenin Breed
TTITLE15=Crash bam boom
TTITLE16=Rose-A-Lee
TTITLE17=Red hot Salsa
TTITLE18=No no never
TTITLE19=I feel lucky
EXTD=
EXTT0=
EXTT1=
EXTT2=
EXTT3=
EXTT4=
EXTT5=
EXTT6=
EXTT7=
EXTT8=
EXTT9=
EXTT10=
EXTT11=
EXTT12=
EXTT13=
EXTT14=
EXTT15=
EXTT16=
EXTT17=
EXTT18=
EXTT19=
PLAYORDER=
